<svg id="7963c0f3-cd08-4be9-a891-16d2c972d802" data-name="Layer 1" xmlns="http://www.w3.org/2000/svg" width="10" height="10"><title>linkedin</title><path class="b5d141d9-1bbc-4b72-892b-16cb898a4cc6" d="M77.187,31.694H44.8A2.773,2.773,0,0,0,42,34.433V66.952a2.775,2.775,0,0,0,2.8,2.742H77.187A2.781,2.781,0,0,0,80,66.952V34.433A2.779,2.779,0,0,0,77.187,31.694ZM53.27,64.075H47.633V45.94H53.27V64.075ZM50.453,43.461a3.268,3.268,0,1,1,3.266-3.269A3.269,3.269,0,0,1,50.453,43.461ZM74.38,64.075H68.748V55.256c0-2.1-.039-4.809-2.929-4.809-2.933,0-3.382,2.291-3.382,4.657v8.971H56.8V45.94h5.407v2.478h0.075a5.921,5.921,0,0,1,5.333-2.929c5.707,0,6.761,3.756,6.761,8.639v9.947Z" transform="translate(-28.999 -20.094) scale(0.8)"/></svg>